<mxfile host="Electron" modified="2024-05-13T08:49:21.323Z" agent="Mozilla/5.0 (Windows NT 10.0; Win64; x64) AppleWebKit/537.36 (KHTML, like Gecko) draw.io/23.0.2 Chrome/120.0.6099.109 Electron/28.1.0 Safari/537.36" etag="ZjHt0g_15INkaal5O_dk" version="23.0.2" type="device">
  <diagram name="Page-1" id="YT9UZx_KcCJyljaHRqWj">
    <mxGraphModel dx="2284" dy="844" grid="1" gridSize="10" guides="1" tooltips="1" connect="1" arrows="1" fold="1" page="1" pageScale="1" pageWidth="850" pageHeight="1100" math="0" shadow="0">
      <root>
        <mxCell id="0" />
        <mxCell id="1" parent="0" />
        <mxCell id="QIN2nR0LbHZLvJPPdkDa-1" value="Strand" style="swimlane;fontStyle=0;childLayout=stackLayout;horizontal=1;startSize=30;horizontalStack=0;resizeParent=1;resizeParentMax=0;resizeLast=0;collapsible=1;marginBottom=0;whiteSpace=wrap;html=1;fontFamily=Georgia;" vertex="1" parent="1">
          <mxGeometry x="250" y="210" width="140" height="120" as="geometry" />
        </mxCell>
        <mxCell id="QIN2nR0LbHZLvJPPdkDa-2" value="id" style="text;strokeColor=none;fillColor=none;align=left;verticalAlign=middle;spacingLeft=4;spacingRight=4;overflow=hidden;points=[[0,0.5],[1,0.5]];portConstraint=eastwest;rotatable=0;whiteSpace=wrap;html=1;fontFamily=Georgia;" vertex="1" parent="QIN2nR0LbHZLvJPPdkDa-1">
          <mxGeometry y="30" width="140" height="30" as="geometry" />
        </mxCell>
        <mxCell id="QIN2nR0LbHZLvJPPdkDa-3" value="date" style="text;strokeColor=none;fillColor=none;align=left;verticalAlign=middle;spacingLeft=4;spacingRight=4;overflow=hidden;points=[[0,0.5],[1,0.5]];portConstraint=eastwest;rotatable=0;whiteSpace=wrap;html=1;fontFamily=Georgia;" vertex="1" parent="QIN2nR0LbHZLvJPPdkDa-1">
          <mxGeometry y="60" width="140" height="30" as="geometry" />
        </mxCell>
        <mxCell id="QIN2nR0LbHZLvJPPdkDa-4" value="theme" style="text;strokeColor=none;fillColor=none;align=left;verticalAlign=middle;spacingLeft=4;spacingRight=4;overflow=hidden;points=[[0,0.5],[1,0.5]];portConstraint=eastwest;rotatable=0;whiteSpace=wrap;html=1;fontFamily=Georgia;" vertex="1" parent="QIN2nR0LbHZLvJPPdkDa-1">
          <mxGeometry y="90" width="140" height="30" as="geometry" />
        </mxCell>
        <mxCell id="QIN2nR0LbHZLvJPPdkDa-5" value="Letters" style="swimlane;fontStyle=0;childLayout=stackLayout;horizontal=1;startSize=30;horizontalStack=0;resizeParent=1;resizeParentMax=0;resizeLast=0;collapsible=1;marginBottom=0;whiteSpace=wrap;html=1;fontFamily=Georgia;" vertex="1" parent="1">
          <mxGeometry x="440" y="420" width="140" height="150" as="geometry" />
        </mxCell>
        <mxCell id="QIN2nR0LbHZLvJPPdkDa-6" value="id" style="text;strokeColor=none;fillColor=none;align=left;verticalAlign=middle;spacingLeft=4;spacingRight=4;overflow=hidden;points=[[0,0.5],[1,0.5]];portConstraint=eastwest;rotatable=0;whiteSpace=wrap;html=1;fontFamily=Georgia;" vertex="1" parent="QIN2nR0LbHZLvJPPdkDa-5">
          <mxGeometry y="30" width="140" height="30" as="geometry" />
        </mxCell>
        <mxCell id="QIN2nR0LbHZLvJPPdkDa-7" value="index" style="text;strokeColor=none;fillColor=none;align=left;verticalAlign=middle;spacingLeft=4;spacingRight=4;overflow=hidden;points=[[0,0.5],[1,0.5]];portConstraint=eastwest;rotatable=0;whiteSpace=wrap;html=1;fontFamily=Georgia;" vertex="1" parent="QIN2nR0LbHZLvJPPdkDa-5">
          <mxGeometry y="60" width="140" height="30" as="geometry" />
        </mxCell>
        <mxCell id="QIN2nR0LbHZLvJPPdkDa-8" value="letter" style="text;strokeColor=none;fillColor=none;align=left;verticalAlign=middle;spacingLeft=4;spacingRight=4;overflow=hidden;points=[[0,0.5],[1,0.5]];portConstraint=eastwest;rotatable=0;whiteSpace=wrap;html=1;fontFamily=Georgia;" vertex="1" parent="QIN2nR0LbHZLvJPPdkDa-5">
          <mxGeometry y="90" width="140" height="30" as="geometry" />
        </mxCell>
        <mxCell id="QIN2nR0LbHZLvJPPdkDa-15" value="strand_id" style="text;strokeColor=none;fillColor=none;align=left;verticalAlign=middle;spacingLeft=4;spacingRight=4;overflow=hidden;points=[[0,0.5],[1,0.5]];portConstraint=eastwest;rotatable=0;whiteSpace=wrap;html=1;fontFamily=Georgia;" vertex="1" parent="QIN2nR0LbHZLvJPPdkDa-5">
          <mxGeometry y="120" width="140" height="30" as="geometry" />
        </mxCell>
        <mxCell id="QIN2nR0LbHZLvJPPdkDa-14" style="edgeStyle=orthogonalEdgeStyle;rounded=0;orthogonalLoop=1;jettySize=auto;html=1;exitX=0;exitY=0.5;exitDx=0;exitDy=0;entryX=0;entryY=0.5;entryDx=0;entryDy=0;endArrow=none;endFill=0;" edge="1" parent="1" source="QIN2nR0LbHZLvJPPdkDa-13" target="QIN2nR0LbHZLvJPPdkDa-2">
          <mxGeometry relative="1" as="geometry" />
        </mxCell>
        <mxCell id="QIN2nR0LbHZLvJPPdkDa-10" value="Words" style="swimlane;fontStyle=0;childLayout=stackLayout;horizontal=1;startSize=30;horizontalStack=0;resizeParent=1;resizeParentMax=0;resizeLast=0;collapsible=1;marginBottom=0;whiteSpace=wrap;html=1;fontFamily=Georgia;" vertex="1" parent="1">
          <mxGeometry x="-30" y="420" width="140" height="120" as="geometry" />
        </mxCell>
        <mxCell id="QIN2nR0LbHZLvJPPdkDa-11" value="id" style="text;strokeColor=none;fillColor=none;align=left;verticalAlign=middle;spacingLeft=4;spacingRight=4;overflow=hidden;points=[[0,0.5],[1,0.5]];portConstraint=eastwest;rotatable=0;whiteSpace=wrap;html=1;fontFamily=Georgia;" vertex="1" parent="QIN2nR0LbHZLvJPPdkDa-10">
          <mxGeometry y="30" width="140" height="30" as="geometry" />
        </mxCell>
        <mxCell id="QIN2nR0LbHZLvJPPdkDa-12" value="word" style="text;strokeColor=none;fillColor=none;align=left;verticalAlign=middle;spacingLeft=4;spacingRight=4;overflow=hidden;points=[[0,0.5],[1,0.5]];portConstraint=eastwest;rotatable=0;whiteSpace=wrap;html=1;fontFamily=Georgia;" vertex="1" parent="QIN2nR0LbHZLvJPPdkDa-10">
          <mxGeometry y="60" width="140" height="30" as="geometry" />
        </mxCell>
        <mxCell id="QIN2nR0LbHZLvJPPdkDa-13" value="strand_id" style="text;strokeColor=none;fillColor=none;align=left;verticalAlign=middle;spacingLeft=4;spacingRight=4;overflow=hidden;points=[[0,0.5],[1,0.5]];portConstraint=eastwest;rotatable=0;whiteSpace=wrap;html=1;fontFamily=Georgia;" vertex="1" parent="QIN2nR0LbHZLvJPPdkDa-10">
          <mxGeometry y="90" width="140" height="30" as="geometry" />
        </mxCell>
        <mxCell id="QIN2nR0LbHZLvJPPdkDa-16" style="edgeStyle=orthogonalEdgeStyle;rounded=0;orthogonalLoop=1;jettySize=auto;html=1;exitX=0;exitY=0.5;exitDx=0;exitDy=0;entryX=1;entryY=0.5;entryDx=0;entryDy=0;endArrow=none;endFill=0;" edge="1" parent="1" source="QIN2nR0LbHZLvJPPdkDa-15" target="QIN2nR0LbHZLvJPPdkDa-2">
          <mxGeometry relative="1" as="geometry" />
        </mxCell>
        <mxCell id="QIN2nR0LbHZLvJPPdkDa-17" value="WordLetters" style="swimlane;fontStyle=0;childLayout=stackLayout;horizontal=1;startSize=30;horizontalStack=0;resizeParent=1;resizeParentMax=0;resizeLast=0;collapsible=1;marginBottom=0;whiteSpace=wrap;html=1;fontFamily=Georgia;" vertex="1" parent="1">
          <mxGeometry x="250" y="650" width="140" height="210" as="geometry" />
        </mxCell>
        <mxCell id="QIN2nR0LbHZLvJPPdkDa-18" value="id" style="text;strokeColor=none;fillColor=none;align=left;verticalAlign=middle;spacingLeft=4;spacingRight=4;overflow=hidden;points=[[0,0.5],[1,0.5]];portConstraint=eastwest;rotatable=0;whiteSpace=wrap;html=1;fontFamily=Georgia;" vertex="1" parent="QIN2nR0LbHZLvJPPdkDa-17">
          <mxGeometry y="30" width="140" height="30" as="geometry" />
        </mxCell>
        <mxCell id="QIN2nR0LbHZLvJPPdkDa-19" value="index" style="text;strokeColor=none;fillColor=none;align=left;verticalAlign=middle;spacingLeft=4;spacingRight=4;overflow=hidden;points=[[0,0.5],[1,0.5]];portConstraint=eastwest;rotatable=0;whiteSpace=wrap;html=1;fontFamily=Georgia;" vertex="1" parent="QIN2nR0LbHZLvJPPdkDa-17">
          <mxGeometry y="60" width="140" height="30" as="geometry" />
        </mxCell>
        <mxCell id="QIN2nR0LbHZLvJPPdkDa-20" value="word_id" style="text;strokeColor=none;fillColor=none;align=left;verticalAlign=middle;spacingLeft=4;spacingRight=4;overflow=hidden;points=[[0,0.5],[1,0.5]];portConstraint=eastwest;rotatable=0;whiteSpace=wrap;html=1;fontFamily=Georgia;" vertex="1" parent="QIN2nR0LbHZLvJPPdkDa-17">
          <mxGeometry y="90" width="140" height="30" as="geometry" />
        </mxCell>
        <mxCell id="QIN2nR0LbHZLvJPPdkDa-21" value="word" style="text;strokeColor=none;fillColor=none;align=left;verticalAlign=middle;spacingLeft=4;spacingRight=4;overflow=hidden;points=[[0,0.5],[1,0.5]];portConstraint=eastwest;rotatable=0;whiteSpace=wrap;html=1;fontFamily=Georgia;" vertex="1" parent="QIN2nR0LbHZLvJPPdkDa-17">
          <mxGeometry y="120" width="140" height="30" as="geometry" />
        </mxCell>
        <mxCell id="QIN2nR0LbHZLvJPPdkDa-22" value="letter_id" style="text;strokeColor=none;fillColor=none;align=left;verticalAlign=middle;spacingLeft=4;spacingRight=4;overflow=hidden;points=[[0,0.5],[1,0.5]];portConstraint=eastwest;rotatable=0;whiteSpace=wrap;html=1;fontFamily=Georgia;" vertex="1" parent="QIN2nR0LbHZLvJPPdkDa-17">
          <mxGeometry y="150" width="140" height="30" as="geometry" />
        </mxCell>
        <mxCell id="QIN2nR0LbHZLvJPPdkDa-23" value="letter" style="text;strokeColor=none;fillColor=none;align=left;verticalAlign=middle;spacingLeft=4;spacingRight=4;overflow=hidden;points=[[0,0.5],[1,0.5]];portConstraint=eastwest;rotatable=0;whiteSpace=wrap;html=1;fontFamily=Georgia;" vertex="1" parent="QIN2nR0LbHZLvJPPdkDa-17">
          <mxGeometry y="180" width="140" height="30" as="geometry" />
        </mxCell>
        <mxCell id="QIN2nR0LbHZLvJPPdkDa-24" style="edgeStyle=orthogonalEdgeStyle;rounded=0;orthogonalLoop=1;jettySize=auto;html=1;exitX=0;exitY=0.5;exitDx=0;exitDy=0;entryX=1;entryY=0.5;entryDx=0;entryDy=0;endArrow=none;endFill=0;" edge="1" parent="1" source="QIN2nR0LbHZLvJPPdkDa-20" target="QIN2nR0LbHZLvJPPdkDa-11">
          <mxGeometry relative="1" as="geometry" />
        </mxCell>
        <mxCell id="QIN2nR0LbHZLvJPPdkDa-25" style="edgeStyle=orthogonalEdgeStyle;rounded=0;orthogonalLoop=1;jettySize=auto;html=1;exitX=1;exitY=0.5;exitDx=0;exitDy=0;entryX=1;entryY=0.5;entryDx=0;entryDy=0;endArrow=none;endFill=0;" edge="1" parent="1" source="QIN2nR0LbHZLvJPPdkDa-22" target="QIN2nR0LbHZLvJPPdkDa-6">
          <mxGeometry relative="1" as="geometry" />
        </mxCell>
      </root>
    </mxGraphModel>
  </diagram>
</mxfile>
